<mxfile host="app.diagrams.net" modified="2020-05-23T11:11:35.733Z" agent="5.0 (Macintosh; Intel Mac OS X 10_15_4) AppleWebKit/537.36 (KHTML, like Gecko) Chrome/81.0.4044.138 Safari/537.36" etag="wh_9efqz6fph9miXf8y7" version="13.1.3" type="github">
  <diagram id="C5RBs43oDa-KdzZeNtuy" name="Page-1">
    <mxGraphModel dx="946" dy="622" grid="1" gridSize="10" guides="1" tooltips="1" connect="1" arrows="1" fold="1" page="1" pageScale="1" pageWidth="1169" pageHeight="827" math="0" shadow="1">
      <root>
        <mxCell id="WIyWlLk6GJQsqaUBKTNV-0" />
        <mxCell id="WIyWlLk6GJQsqaUBKTNV-1" parent="WIyWlLk6GJQsqaUBKTNV-0" />
        <mxCell id="en3uIfhy-MCbVjNIkCMq-32" value="" style="rounded=0;whiteSpace=wrap;html=1;fillColor=#f9f7ed;strokeColor=#36393d;" parent="WIyWlLk6GJQsqaUBKTNV-1" vertex="1">
          <mxGeometry x="80" y="303" width="380" height="277" as="geometry" />
        </mxCell>
        <mxCell id="en3uIfhy-MCbVjNIkCMq-14" value="" style="rounded=0;whiteSpace=wrap;html=1;fillColor=#f5f5f5;strokeColor=#666666;fontColor=#333333;" parent="WIyWlLk6GJQsqaUBKTNV-1" vertex="1">
          <mxGeometry x="685" y="320" width="150" height="280" as="geometry" />
        </mxCell>
        <mxCell id="en3uIfhy-MCbVjNIkCMq-0" value="" style="points=[];aspect=fixed;html=1;align=center;shadow=0;dashed=0;image;image=img/lib/allied_telesis/computer_and_terminals/Laptop.svg;direction=west;rotation=-180;" parent="WIyWlLk6GJQsqaUBKTNV-1" vertex="1">
          <mxGeometry x="90" y="404" width="82" height="83.17" as="geometry" />
        </mxCell>
        <mxCell id="en3uIfhy-MCbVjNIkCMq-1" value="&lt;font style=&quot;font-size: 18px&quot;&gt;Laptop&lt;/font&gt;" style="text;html=1;strokeColor=none;fillColor=none;align=center;verticalAlign=middle;whiteSpace=wrap;rounded=0;" parent="WIyWlLk6GJQsqaUBKTNV-1" vertex="1">
          <mxGeometry x="111" y="494" width="40" height="20" as="geometry" />
        </mxCell>
        <mxCell id="en3uIfhy-MCbVjNIkCMq-3" value="&lt;font style=&quot;font-size: 18px&quot;&gt;USB&lt;/font&gt;" style="rounded=1;whiteSpace=wrap;html=1;fillColor=#f5f5f5;strokeColor=#666666;fontColor=#333333;" parent="WIyWlLk6GJQsqaUBKTNV-1" vertex="1">
          <mxGeometry x="220" y="330" width="60" height="33" as="geometry" />
        </mxCell>
        <mxCell id="en3uIfhy-MCbVjNIkCMq-4" value="" style="endArrow=none;dashed=1;html=1;entryX=0.452;entryY=1.003;entryDx=0;entryDy=0;entryPerimeter=0;" parent="WIyWlLk6GJQsqaUBKTNV-1" target="en3uIfhy-MCbVjNIkCMq-3" edge="1">
          <mxGeometry width="50" height="50" relative="1" as="geometry">
            <mxPoint x="248" y="458" as="sourcePoint" />
            <mxPoint x="248" y="369" as="targetPoint" />
          </mxGeometry>
        </mxCell>
        <mxCell id="en3uIfhy-MCbVjNIkCMq-5" value="&lt;font style=&quot;font-size: 18px&quot;&gt;Arduino&lt;/font&gt;" style="rounded=1;whiteSpace=wrap;html=1;fillColor=#f5f5f5;strokeColor=#666666;fontColor=#333333;" parent="WIyWlLk6GJQsqaUBKTNV-1" vertex="1">
          <mxGeometry x="330" y="427.17" width="120" height="60" as="geometry" />
        </mxCell>
        <mxCell id="en3uIfhy-MCbVjNIkCMq-6" value="&lt;font style=&quot;font-size: 18px&quot;&gt;Xbee Shield&lt;/font&gt;" style="rounded=1;whiteSpace=wrap;html=1;" parent="WIyWlLk6GJQsqaUBKTNV-1" vertex="1">
          <mxGeometry x="330" y="390" width="120" height="37.17" as="geometry" />
        </mxCell>
        <mxCell id="en3uIfhy-MCbVjNIkCMq-7" value="&lt;font style=&quot;font-size: 18px&quot;&gt;XBee&lt;/font&gt;" style="rounded=1;whiteSpace=wrap;html=1;fillColor=#dae8fc;strokeColor=#6c8ebf;" parent="WIyWlLk6GJQsqaUBKTNV-1" vertex="1">
          <mxGeometry x="340" y="350" width="100" height="40" as="geometry" />
        </mxCell>
        <mxCell id="en3uIfhy-MCbVjNIkCMq-8" value="" style="endArrow=classic;startArrow=classic;html=1;exitX=1;exitY=0.5;exitDx=0;exitDy=0;" parent="WIyWlLk6GJQsqaUBKTNV-1" source="en3uIfhy-MCbVjNIkCMq-7" edge="1">
          <mxGeometry width="50" height="50" relative="1" as="geometry">
            <mxPoint x="590" y="440" as="sourcePoint" />
            <mxPoint x="710" y="370" as="targetPoint" />
            <Array as="points">
              <mxPoint x="560" y="370" />
            </Array>
          </mxGeometry>
        </mxCell>
        <mxCell id="en3uIfhy-MCbVjNIkCMq-9" value="" style="endArrow=none;dashed=1;html=1;" parent="WIyWlLk6GJQsqaUBKTNV-1" target="en3uIfhy-MCbVjNIkCMq-10" edge="1">
          <mxGeometry width="50" height="50" relative="1" as="geometry">
            <mxPoint x="571" y="370" as="sourcePoint" />
            <mxPoint x="571" y="300" as="targetPoint" />
          </mxGeometry>
        </mxCell>
        <mxCell id="en3uIfhy-MCbVjNIkCMq-10" value="&lt;font style=&quot;font-size: 18px&quot;&gt;Wireless&lt;br&gt;&lt;span style=&quot;color: rgb(64 , 60 , 58) ; font-family: &amp;#34;tahoma&amp;#34; , &amp;#34;arial&amp;#34; , &amp;#34;helvetica&amp;#34; , sans-serif ; text-align: left ; background-color: rgb(255 , 255 , 255)&quot;&gt;ISM 2.4 GHz&lt;/span&gt;&lt;/font&gt;" style="rounded=1;whiteSpace=wrap;html=1;" parent="WIyWlLk6GJQsqaUBKTNV-1" vertex="1">
          <mxGeometry x="511" y="270" width="120" height="60" as="geometry" />
        </mxCell>
        <mxCell id="en3uIfhy-MCbVjNIkCMq-11" value="&lt;font style=&quot;font-size: 18px&quot;&gt;Bread Board&lt;/font&gt;" style="rounded=1;whiteSpace=wrap;html=1;" parent="WIyWlLk6GJQsqaUBKTNV-1" vertex="1">
          <mxGeometry x="700" y="390" width="120" height="37.17" as="geometry" />
        </mxCell>
        <mxCell id="en3uIfhy-MCbVjNIkCMq-12" value="&lt;font style=&quot;font-size: 18px&quot;&gt;XBee&lt;/font&gt;" style="rounded=1;whiteSpace=wrap;html=1;fillColor=#dae8fc;strokeColor=#6c8ebf;" parent="WIyWlLk6GJQsqaUBKTNV-1" vertex="1">
          <mxGeometry x="710" y="350" width="100" height="40" as="geometry" />
        </mxCell>
        <mxCell id="en3uIfhy-MCbVjNIkCMq-13" value="&lt;font&gt;&lt;font style=&quot;font-size: 18px&quot;&gt;Raspberry&lt;br&gt;Pi&lt;/font&gt;&lt;br&gt;&lt;/font&gt;" style="rounded=1;whiteSpace=wrap;html=1;fillColor=#dae8fc;strokeColor=#6c8ebf;" parent="WIyWlLk6GJQsqaUBKTNV-1" vertex="1">
          <mxGeometry x="700" y="427.17" width="120" height="60" as="geometry" />
        </mxCell>
        <mxCell id="en3uIfhy-MCbVjNIkCMq-15" value="&lt;font style=&quot;font-size: 24px&quot;&gt;Can Sat&lt;/font&gt;" style="text;html=1;strokeColor=none;fillColor=none;align=center;verticalAlign=middle;whiteSpace=wrap;rounded=0;" parent="WIyWlLk6GJQsqaUBKTNV-1" vertex="1">
          <mxGeometry x="715" y="620" width="90" height="20" as="geometry" />
        </mxCell>
        <mxCell id="en3uIfhy-MCbVjNIkCMq-17" value="&lt;font style=&quot;font-size: 24px&quot;&gt;Camera&lt;/font&gt;" style="rounded=1;whiteSpace=wrap;html=1;" parent="WIyWlLk6GJQsqaUBKTNV-1" vertex="1">
          <mxGeometry x="700" y="520" width="120" height="60" as="geometry" />
        </mxCell>
        <mxCell id="en3uIfhy-MCbVjNIkCMq-19" value="&lt;font style=&quot;font-size: 18px&quot;&gt;Pre-trained&lt;br&gt;Data Model&lt;/font&gt;" style="rounded=1;whiteSpace=wrap;html=1;" parent="WIyWlLk6GJQsqaUBKTNV-1" vertex="1">
          <mxGeometry x="900" y="528.5" width="100" height="43" as="geometry" />
        </mxCell>
        <mxCell id="en3uIfhy-MCbVjNIkCMq-20" value="" style="endArrow=classic;html=1;entryX=0.5;entryY=1;entryDx=0;entryDy=0;" parent="WIyWlLk6GJQsqaUBKTNV-1" target="en3uIfhy-MCbVjNIkCMq-19" edge="1">
          <mxGeometry width="50" height="50" relative="1" as="geometry">
            <mxPoint x="950" y="610" as="sourcePoint" />
            <mxPoint x="800" y="480" as="targetPoint" />
            <Array as="points" />
          </mxGeometry>
        </mxCell>
        <mxCell id="en3uIfhy-MCbVjNIkCMq-21" value="&lt;font style=&quot;font-size: 18px&quot;&gt;TensorFlow&lt;/font&gt;" style="rounded=1;whiteSpace=wrap;html=1;" parent="WIyWlLk6GJQsqaUBKTNV-1" vertex="1">
          <mxGeometry x="890" y="610" width="120" height="60" as="geometry" />
        </mxCell>
        <mxCell id="en3uIfhy-MCbVjNIkCMq-22" value="&lt;font style=&quot;font-size: 18px&quot;&gt;Nvidia Jetson Nano&lt;/font&gt;" style="rounded=1;whiteSpace=wrap;html=1;" parent="WIyWlLk6GJQsqaUBKTNV-1" vertex="1">
          <mxGeometry x="890" y="710" width="120" height="60" as="geometry" />
        </mxCell>
        <mxCell id="en3uIfhy-MCbVjNIkCMq-23" value="&lt;h1&gt;Can Satellite Project&lt;/h1&gt;&lt;p&gt;WorkFlow chart for Can Satellite Project.&lt;/p&gt;&lt;p&gt;We will use XBee S2 Pro to transfer Data between Arduino and Raspberry Pi. Arduino is for connecting to Laptop. And the Raspberry Pi is for Can Satellite&lt;/p&gt;" style="text;html=1;strokeColor=none;fillColor=none;spacing=5;spacingTop=-20;whiteSpace=wrap;overflow=hidden;rounded=0;" parent="WIyWlLk6GJQsqaUBKTNV-1" vertex="1">
          <mxGeometry x="100" y="160" width="320" height="120" as="geometry" />
        </mxCell>
        <mxCell id="en3uIfhy-MCbVjNIkCMq-25" value="&lt;font style=&quot;font-size: 12px&quot;&gt;Deep-learning Based Bird Detection&lt;/font&gt;" style="text;html=1;strokeColor=none;fillColor=none;align=center;verticalAlign=middle;whiteSpace=wrap;rounded=0;" parent="WIyWlLk6GJQsqaUBKTNV-1" vertex="1">
          <mxGeometry x="885" y="489" width="130" height="20" as="geometry" />
        </mxCell>
        <mxCell id="en3uIfhy-MCbVjNIkCMq-26" value="Transfer Can Sat&#39;s Data and Warning Signal From Raspberry Pi" style="text;html=1;strokeColor=none;fillColor=none;align=center;verticalAlign=middle;whiteSpace=wrap;rounded=0;" parent="WIyWlLk6GJQsqaUBKTNV-1" vertex="1">
          <mxGeometry x="491.5" y="394" width="159" height="20" as="geometry" />
        </mxCell>
        <mxCell id="en3uIfhy-MCbVjNIkCMq-27" value="Attitude Control&lt;br&gt;Using Inertia Wheel Control" style="text;html=1;strokeColor=none;fillColor=none;align=center;verticalAlign=middle;whiteSpace=wrap;rounded=0;" parent="WIyWlLk6GJQsqaUBKTNV-1" vertex="1">
          <mxGeometry x="715" y="670" width="90" height="20" as="geometry" />
        </mxCell>
        <mxCell id="en3uIfhy-MCbVjNIkCMq-29" value="&lt;font style=&quot;font-size: 18px&quot;&gt;OpenCV&lt;/font&gt;" style="rounded=1;whiteSpace=wrap;html=1;" parent="WIyWlLk6GJQsqaUBKTNV-1" vertex="1">
          <mxGeometry x="875" y="670" width="150" height="40" as="geometry" />
        </mxCell>
        <mxCell id="en3uIfhy-MCbVjNIkCMq-30" value="Inertia Wheel" style="rounded=1;whiteSpace=wrap;html=1;fillColor=#fff2cc;strokeColor=#d6b656;" parent="WIyWlLk6GJQsqaUBKTNV-1" vertex="1">
          <mxGeometry x="720" y="489" width="80" height="30" as="geometry" />
        </mxCell>
        <mxCell id="en3uIfhy-MCbVjNIkCMq-31" value="Receiving Data From Cansat" style="text;html=1;strokeColor=none;fillColor=none;align=center;verticalAlign=middle;whiteSpace=wrap;rounded=0;" parent="WIyWlLk6GJQsqaUBKTNV-1" vertex="1">
          <mxGeometry x="220" y="474" width="80" height="20" as="geometry" />
        </mxCell>
        <mxCell id="en3uIfhy-MCbVjNIkCMq-33" value="" style="endArrow=classic;html=1;exitX=0;exitY=0.5;exitDx=0;exitDy=0;entryX=1;entryY=0.5;entryDx=0;entryDy=0;" parent="WIyWlLk6GJQsqaUBKTNV-1" source="en3uIfhy-MCbVjNIkCMq-19" target="en3uIfhy-MCbVjNIkCMq-17" edge="1">
          <mxGeometry width="50" height="50" relative="1" as="geometry">
            <mxPoint x="550" y="470" as="sourcePoint" />
            <mxPoint x="600" y="420" as="targetPoint" />
          </mxGeometry>
        </mxCell>
        <mxCell id="en3uIfhy-MCbVjNIkCMq-34" value="&lt;font style=&quot;font-size: 24px&quot;&gt;Land&lt;/font&gt;" style="text;html=1;strokeColor=none;fillColor=none;align=center;verticalAlign=middle;whiteSpace=wrap;rounded=0;" parent="WIyWlLk6GJQsqaUBKTNV-1" vertex="1">
          <mxGeometry x="240" y="600" width="40" height="20" as="geometry" />
        </mxCell>
        <mxCell id="en3uIfhy-MCbVjNIkCMq-38" value="" style="endArrow=classic;startArrow=classic;html=1;exitX=0;exitY=0.5;exitDx=0;exitDy=0;entryX=0.997;entryY=0.642;entryDx=0;entryDy=0;entryPerimeter=0;" parent="WIyWlLk6GJQsqaUBKTNV-1" source="en3uIfhy-MCbVjNIkCMq-5" target="en3uIfhy-MCbVjNIkCMq-0" edge="1">
          <mxGeometry width="50" height="50" relative="1" as="geometry">
            <mxPoint x="560" y="420" as="sourcePoint" />
            <mxPoint x="610" y="370" as="targetPoint" />
          </mxGeometry>
        </mxCell>
      </root>
    </mxGraphModel>
  </diagram>
</mxfile>
